<svg xmlns="http://www.w3.org/2000/svg" xmlns:xlink="http://www.w3.org/1999/xlink" width="1024" zoomAndPan="magnify" viewBox="0 0 768 767.999994" height="1024" preserveAspectRatio="xMidYMid meet" version="1.0"><defs><clipPath id="ec8331cbb5"><path d="M 2.878906 0 L 764.878906 0 L 764.878906 768 L 2.878906 768 Z M 2.878906 0 " clip-rule="nonzero"/></clipPath></defs><g clip-path="url(#ec8331cbb5)"><path fill="#515255" d="M 741.972656 252.960938 C 734.160156 213.617188 714.492188 178.617188 686.722656 151.714844 C 618.453125 61.171875 510.84375 2.449219 389.925781 0.425781 C 389.058594 0.425781 387.902344 0.425781 387.035156 0.425781 C 386.746094 0.425781 386.457031 0.425781 386.167969 0.425781 C 385.589844 0.425781 384.71875 0.425781 384.140625 0.425781 C 173.839844 0.425781 2.878906 172.542969 2.878906 384 C 2.878906 595.457031 173.839844 767.574219 383.851562 767.574219 C 384.429688 767.574219 385.300781 767.574219 385.878906 767.574219 C 386.167969 767.574219 386.457031 767.574219 386.746094 767.574219 C 387.902344 767.574219 388.769531 767.574219 389.636719 767.574219 C 505.925781 765.839844 609.773438 711.457031 678.332031 626.988281 C 711.886719 598.0625 735.320312 557.851562 742.839844 512.4375 C 757.015625 472.515625 764.824219 429.414062 764.824219 384.289062 C 765.113281 338.003906 757.015625 293.746094 741.972656 252.960938 Z M 680.066406 157.789062 C 702.34375 187.292969 720.277344 219.980469 733.292969 255.273438 C 735.609375 266.84375 736.765625 278.703125 736.765625 290.566406 C 736.765625 321.226562 729.246094 350.445312 715.648438 375.898438 C 682.09375 323.542969 624.238281 287.960938 557.996094 285.9375 C 572.746094 258.746094 581.136719 227.503906 581.136719 194.238281 C 581.136719 162.417969 573.328125 132.332031 559.730469 106.007812 C 606.304688 108.035156 648.539062 127.414062 680.066406 157.789062 Z M 410.175781 423.050781 C 443.441406 458.632812 490.015625 481.773438 541.796875 484.378906 C 510.554688 532.109375 457.90625 564.796875 397.449219 568.265625 C 411.042969 541.652344 418.855469 511.859375 418.855469 480.039062 C 418.566406 460.367188 415.671875 441.277344 410.175781 423.050781 Z M 397.738281 392.390625 C 397.160156 391.230469 396.582031 390.074219 396.003906 388.917969 C 458.195312 391.808594 512.289062 425.65625 543.53125 475.410156 C 482.496094 472.515625 429.269531 440.117188 397.738281 392.390625 Z M 428.980469 384 C 479.890625 372.71875 523.28125 341.1875 550.472656 298.664062 C 563.78125 324.121094 571.589844 353.335938 571.589844 384 C 571.589844 414.664062 564.070312 443.878906 550.472656 469.335938 C 523.570312 426.523438 479.890625 395.28125 428.980469 384 Z M 397.449219 378.792969 C 397.449219 378.503906 397.738281 378.503906 397.738281 378.214844 C 428.980469 331.0625 481.335938 298.953125 541.507812 295.484375 C 510.265625 343.210938 457.617188 375.609375 397.449219 378.792969 Z M 550.761719 279.863281 C 518.074219 228.371094 461.667969 193.367188 397.160156 190.1875 C 429.558594 140.433594 485.675781 107.164062 549.316406 106.007812 C 563.78125 132.332031 571.878906 162.417969 571.878906 194.527344 C 571.589844 225.1875 564.070312 254.40625 550.761719 279.863281 Z M 543.53125 286.226562 C 490.882812 288.539062 443.730469 311.683594 410.175781 347.550781 C 415.671875 329.617188 418.566406 310.523438 418.566406 290.566406 C 418.566406 257.585938 410.175781 226.636719 395.710938 199.445312 C 458.195312 202.335938 512.289062 236.472656 543.53125 286.226562 Z M 409.308594 290.566406 C 409.308594 320.359375 402.078125 348.707031 389.636719 373.585938 C 389.058594 374.164062 388.769531 375.03125 388.191406 375.609375 C 387.613281 375.03125 387.324219 374.164062 386.746094 373.585938 C 374.015625 348.707031 367.074219 320.359375 367.074219 290.566406 C 367.074219 259.613281 374.886719 230.394531 388.191406 204.941406 C 401.789062 230.683594 409.308594 259.613281 409.308594 290.566406 Z M 378.933594 568.265625 C 317.320312 565.664062 263.515625 532.976562 231.984375 484.378906 C 284.921875 482.351562 332.074219 459.210938 365.917969 423.050781 C 360.421875 440.988281 357.527344 460.078125 357.527344 480.039062 C 357.816406 511.859375 365.339844 541.941406 378.933594 568.265625 Z M 230.539062 475.121094 C 262.070312 424.789062 317.320312 390.652344 380.671875 388.628906 C 380.09375 389.785156 379.511719 390.941406 378.644531 392.390625 C 346.535156 440.699219 292.441406 473.386719 230.539062 475.121094 Z M 378.933594 379.082031 C 317.609375 376.480469 263.804688 343.789062 232.273438 295.480469 C 293.308594 298.085938 346.824219 330.195312 378.644531 378.214844 C 378.933594 378.503906 378.933594 378.792969 378.933594 379.082031 Z M 357.816406 290.566406 C 357.816406 310.234375 360.710938 329.328125 366.207031 347.550781 C 332.074219 311.101562 283.765625 287.671875 230.25 286.226562 C 261.78125 235.601562 317.320312 201.46875 380.382812 199.445312 C 365.917969 226.636719 357.816406 257.585938 357.816406 290.566406 Z M 223.304688 279.863281 C 210 254.40625 202.1875 225.1875 202.1875 194.527344 C 202.1875 162.417969 210.289062 132.332031 224.753906 106.007812 C 289.550781 106.007812 346.246094 139.5625 379.222656 190.1875 C 313.847656 192.5 256.574219 227.792969 223.304688 279.863281 Z M 344.800781 384 C 293.886719 395.28125 250.496094 426.8125 223.304688 469.335938 C 210 443.878906 202.1875 414.664062 202.1875 384 C 202.1875 353.335938 209.710938 324.121094 223.304688 298.664062 C 250.496094 341.1875 293.886719 372.429688 344.800781 384 Z M 192.933594 384 C 192.933594 416.976562 201.320312 447.929688 215.785156 475.121094 C 152.144531 472.226562 97.183594 436.9375 66.230469 385.445312 C 96.894531 334.246094 151.277344 299.242188 214.339844 295.773438 C 200.453125 322.09375 192.933594 352.179688 192.933594 384 Z M 223.304688 487.847656 C 256.863281 540.496094 315.003906 575.789062 381.25 577.8125 C 348.851562 629.59375 291.574219 664.015625 226.488281 664.59375 C 211.15625 637.691406 202.1875 606.449219 202.1875 573.183594 C 202.1875 542.523438 209.710938 513.304688 223.304688 487.847656 Z M 367.074219 480.039062 C 367.074219 450.242188 374.304688 421.894531 386.746094 397.015625 C 387.324219 396.4375 387.613281 395.570312 388.191406 394.992188 C 388.769531 395.570312 389.058594 396.4375 389.636719 397.015625 C 402.367188 421.894531 409.308594 450.242188 409.308594 480.039062 C 409.308594 510.992188 401.5 540.207031 388.191406 565.664062 C 374.597656 540.207031 367.074219 510.992188 367.074219 480.039062 Z M 550.761719 487.847656 C 564.070312 513.304688 571.878906 542.523438 571.878906 573.183594 C 571.878906 606.449219 562.914062 637.691406 547.582031 664.59375 C 483.363281 663.148438 427.242188 628.726562 395.421875 577.8125 C 460.511719 574.921875 517.496094 539.917969 550.761719 487.847656 Z M 581.136719 384 C 581.136719 352.179688 573.328125 322.09375 559.730469 295.773438 C 623.660156 298.375 679.488281 333.957031 710.441406 385.734375 C 679.199219 437.804688 622.792969 473.386719 558.285156 475.699219 C 572.746094 447.929688 581.136719 416.976562 581.136719 384 Z M 651.140625 123.945312 C 622.792969 106.875 589.816406 97.042969 554.523438 96.460938 C 535.429688 64.0625 507.082031 37.449219 473.238281 20.671875 C 542.085938 37.738281 603.410156 74.1875 651.140625 123.945312 Z M 385.878906 9.679688 C 387.324219 9.679688 388.480469 9.679688 389.925781 9.679688 C 454.722656 10.835938 511.421875 45.261719 543.53125 96.75 C 478.15625 99.355469 421.167969 134.648438 388.191406 186.425781 C 354.636719 134.066406 296.492188 98.777344 230.25 96.75 C 262.9375 44.683594 320.5 10.257812 385.878906 9.679688 Z M 306.328125 18.070312 C 269.878906 34.847656 239.503906 62.328125 219.257812 96.75 C 174.707031 97.910156 133.921875 114.109375 101.8125 140.433594 C 154.167969 79.394531 225.332031 35.425781 306.328125 18.070312 Z M 214.050781 106.296875 C 200.453125 132.910156 192.644531 162.707031 192.644531 194.527344 C 192.644531 227.792969 201.03125 259.035156 215.785156 286.226562 C 150.699219 289.117188 93.710938 324.410156 60.734375 376.191406 C 47.429688 350.734375 39.617188 321.515625 39.617188 290.855469 C 39.90625 192.210938 117.144531 111.792969 214.050781 106.296875 Z M 12.136719 384 C 12.136719 340.898438 19.367188 299.53125 32.675781 261.058594 C 31.230469 270.605469 30.359375 280.441406 30.359375 290.566406 C 30.359375 324.988281 39.328125 357.097656 55.238281 385.15625 C 39.617188 413.214844 30.359375 445.613281 30.359375 479.75 C 30.359375 488.136719 30.941406 496.527344 32.097656 504.625 C 19.367188 467.019531 12.136719 426.234375 12.136719 384 Z M 39.90625 480.039062 C 39.90625 449.375 47.429688 420.160156 61.023438 394.703125 C 93.710938 446.195312 150.121094 481.195312 214.628906 484.378906 C 200.742188 510.992188 192.933594 541.074219 192.933594 573.183594 C 192.933594 606.160156 201.320312 637.113281 215.785156 664.304688 C 118.011719 659.964844 39.90625 578.96875 39.90625 480.039062 Z M 109.910156 636.535156 C 141.152344 659.386719 179.625 673.273438 220.992188 674.140625 C 241.242188 707.117188 271.035156 733.730469 306.328125 749.929688 C 229.671875 733.441406 161.402344 692.945312 109.910156 636.535156 Z M 385.878906 758.03125 C 321.660156 757.742188 264.960938 724.183594 231.984375 673.851562 C 297.648438 671.246094 354.925781 636.246094 387.902344 584.175781 C 420.589844 635.378906 477 670.378906 541.507812 673.851562 C 509.109375 723.605469 453.277344 756.871094 389.636719 758.03125 C 388.480469 758.03125 387.324219 758.03125 385.878906 758.03125 Z M 473.238281 747.039062 C 506.214844 730.550781 533.695312 705.382812 552.789062 674.140625 C 586.054688 673.851562 617.296875 665.460938 644.488281 650.421875 C 597.625 696.703125 538.902344 730.839844 473.238281 747.039062 Z M 734.160156 509.542969 C 719.699219 550.042969 698.582031 587.359375 671.96875 620.046875 C 641.015625 646.660156 601.386719 663.148438 557.996094 664.59375 C 572.457031 637.402344 580.847656 606.160156 580.847656 573.183594 C 580.847656 541.074219 573.035156 510.992188 559.152344 484.378906 C 624.816406 481.773438 682.09375 446.484375 715.070312 394.414062 C 728.375 419.871094 736.1875 449.085938 736.1875 479.75 C 736.476562 490.164062 735.609375 500 734.160156 509.542969 Z M 721.144531 385.445312 C 735.898438 359.410156 744.574219 329.328125 745.734375 297.507812 C 752.386719 325.277344 755.859375 354.203125 755.859375 384 C 755.859375 413.796875 752.386719 443.011719 745.734375 470.78125 C 743.996094 439.828125 735.320312 410.902344 721.144531 385.445312 Z M 721.144531 385.445312 " fill-opacity="1" fill-rule="nonzero"/></g></svg>